<svg xmlns="http://www.w3.org/2000/svg" viewBox="0 0 1440 320">
	<path fill="#0099ff" fill-opacity="1" d="M0,224L34.3,213.3C68.6,203,137,181,206,197.3C274.3,213,343,267,411,288C480,309,549,299,617,282.7C685.7,267,754,245,823,197.3C891.4,149,960,75,1029,85.3C1097.1,96,1166,192,1234,240C1302.9,288,1371,288,1406,288L1440,288L1440,0L1405.7,0C1371.4,0,1303,0,1234,0C1165.7,0,1097,0,1029,0C960,0,891,0,823,0C754.3,0,686,0,617,0C548.6,0,480,0,411,0C342.9,0,274,0,206,0C137.1,0,69,0,34,0L0,0Z"></path>
</svg>
